<svg xmlns="http://www.w3.org/2000/svg" height="20px" viewBox="0 -960 960 960" width="20px" fill="#e3e3e3"><path d="m694-361.33-48-48q18.67-25 27.67-55t9-61.67h66.66q0 45.33-14.33 87.17-14.33 41.83-41 77.5ZM467.33-588.67Zm102 102L510-545.33v-227.34q0-17-11.83-28.83-11.84-11.83-28.84-11.83T440.5-801.5q-11.83 11.83-11.83 28.83v145.34L362-694v-78.67q0-44.66 31.33-76 31.34-31.33 76-31.33 44.67 0 76 31.33 31.34 31.34 31.34 76V-526q0 9-1.84 20-1.83 11-5.5 19.33ZM436-120v-131.67q-105.33-12-176-90.33t-70.67-184H256q0 88.33 62.17 149.17Q380.33-316 469.33-316q36.67 0 70.17-11.83 33.5-11.84 61.17-32.84L648.33-313q-30.33 25-67.16 40.67-36.84 15.66-78.5 20.66V-120H436Zm382 64.67L42.67-830.67l44-44L862-99.33l-44 44Z"/></svg>